<svg xmlns="http://www.w3.org/2000/svg" xmlns:xlink="http://www.w3.org/1999/xlink" width="500" zoomAndPan="magnify" viewBox="0 0 375 374.999991" height="500" preserveAspectRatio="xMidYMid meet" version="1.0"><defs><filter x="0%" y="0%" width="100%" height="100%" id="8bb45fb5b8"><feColorMatrix values="0 0 0 0 1 0 0 0 0 1 0 0 0 0 1 0 0 0 1 0" color-interpolation-filters="sRGB"/></filter><g/><clipPath id="f1a8218916"><path d="M 22.175781 157.226562 C 33.082031 170.347656 33.105469 205.152344 22.257812 218.324219 C 8.617188 234.878906 0.449219 256.0625 0.449219 279.09375 C 0.449219 332.277344 43.53125 375 96.132812 375 C 119.28125 375 140.46875 366.859375 157.015625 353.257812 C 170.21875 342.410156 205.234375 342.410156 218.4375 353.257812 C 234.984375 366.859375 256.171875 375 279.324219 375 C 331.929688 375 375 332.277344 375 279.09375 C 375 255.890625 366.574219 234.566406 352.707031 217.957031 C 341.808594 204.902344 341.808594 170.542969 352.691406 157.476562 C 366.570312 140.8125 375 119.367188 375 95.90625 C 375 43.183594 331.929688 0 279.324219 0 C 256.371094 0 235.429688 7.960938 218.96875 21.289062 C 205.570312 32.136719 169.214844 32.015625 155.816406 21.167969 C 139.441406 7.914062 118.558594 0 95.675781 0 C 43.070312 0 0 43.183594 0 95.90625 C 0 119.25 8.347656 140.597656 22.175781 157.226562 Z M 22.175781 157.226562 " clip-rule="nonzero"/></clipPath><clipPath id="2863fb3bb9"><path d="M 0 0 L 375 0 L 375 375 L 0 375 Z M 0 0 " clip-rule="nonzero"/></clipPath><clipPath id="4a67962bc7"><path d="M 22.175781 157.226562 C 33.082031 170.347656 33.105469 205.152344 22.257812 218.324219 C 8.617188 234.878906 0.449219 256.0625 0.449219 279.09375 C 0.449219 332.277344 43.53125 375 96.132812 375 C 119.28125 375 140.46875 366.859375 157.015625 353.257812 C 170.21875 342.410156 205.234375 342.410156 218.4375 353.257812 C 234.984375 366.859375 256.171875 375 279.324219 375 C 331.929688 375 375 332.277344 375 279.09375 C 375 255.890625 366.574219 234.566406 352.707031 217.957031 C 341.808594 204.902344 341.808594 170.542969 352.691406 157.476562 C 366.570312 140.8125 375 119.367188 375 95.90625 C 375 43.183594 331.929688 0 279.324219 0 C 256.371094 0 235.429688 7.960938 218.96875 21.289062 C 205.570312 32.136719 169.214844 32.015625 155.816406 21.167969 C 139.441406 7.914062 118.558594 0 95.675781 0 C 43.070312 0 0 43.183594 0 95.90625 C 0 119.25 8.347656 140.597656 22.175781 157.226562 Z M 22.175781 157.226562 " clip-rule="nonzero"/></clipPath><linearGradient x1="0" gradientTransform="matrix(1.464844, 0, 0, 1.464844, 0.0000045, 0)" y1="256" x2="256" gradientUnits="userSpaceOnUse" y2="0" id="1d0f102414"><stop stop-opacity="1" stop-color="rgb(50.588989%, 7.839966%, 69.018555%)" offset="0"/><stop stop-opacity="1" stop-color="rgb(50.588989%, 7.839966%, 69.018555%)" offset="0.125"/><stop stop-opacity="1" stop-color="rgb(50.588989%, 7.839966%, 69.018555%)" offset="0.140625"/><stop stop-opacity="1" stop-color="rgb(50.588989%, 7.839966%, 69.018555%)" offset="0.148438"/><stop stop-opacity="1" stop-color="rgb(51.029968%, 8.000183%, 68.910217%)" offset="0.152344"/><stop stop-opacity="1" stop-color="rgb(51.470947%, 8.161926%, 68.80188%)" offset="0.15625"/><stop stop-opacity="1" stop-color="rgb(52.02179%, 8.363342%, 68.666077%)" offset="0.160156"/><stop stop-opacity="1" stop-color="rgb(52.574158%, 8.564758%, 68.530273%)" offset="0.164062"/><stop stop-opacity="1" stop-color="rgb(53.125%, 8.764648%, 68.39447%)" offset="0.167969"/><stop stop-opacity="1" stop-color="rgb(53.677368%, 8.966064%, 68.258667%)" offset="0.171875"/><stop stop-opacity="1" stop-color="rgb(54.22821%, 9.16748%, 68.122864%)" offset="0.175781"/><stop stop-opacity="1" stop-color="rgb(54.780579%, 9.368896%, 67.987061%)" offset="0.179688"/><stop stop-opacity="1" stop-color="rgb(55.331421%, 9.570312%, 67.851257%)" offset="0.183594"/><stop stop-opacity="1" stop-color="rgb(55.883789%, 9.771729%, 67.71698%)" offset="0.1875"/><stop stop-opacity="1" stop-color="rgb(56.434631%, 9.973145%, 67.581177%)" offset="0.191406"/><stop stop-opacity="1" stop-color="rgb(56.985474%, 10.174561%, 67.445374%)" offset="0.195312"/><stop stop-opacity="1" stop-color="rgb(57.536316%, 10.375977%, 67.30957%)" offset="0.199219"/><stop stop-opacity="1" stop-color="rgb(58.088684%, 10.577393%, 67.173767%)" offset="0.203125"/><stop stop-opacity="1" stop-color="rgb(58.639526%, 10.778809%, 67.037964%)" offset="0.207031"/><stop stop-opacity="1" stop-color="rgb(59.191895%, 10.980225%, 66.902161%)" offset="0.210938"/><stop stop-opacity="1" stop-color="rgb(59.742737%, 11.181641%, 66.766357%)" offset="0.214844"/><stop stop-opacity="1" stop-color="rgb(60.295105%, 11.383057%, 66.630554%)" offset="0.21875"/><stop stop-opacity="1" stop-color="rgb(60.845947%, 11.584473%, 66.494751%)" offset="0.222656"/><stop stop-opacity="1" stop-color="rgb(61.398315%, 11.785889%, 66.358948%)" offset="0.226562"/><stop stop-opacity="1" stop-color="rgb(61.949158%, 11.987305%, 66.223145%)" offset="0.230469"/><stop stop-opacity="1" stop-color="rgb(62.5%, 12.188721%, 66.087341%)" offset="0.234375"/><stop stop-opacity="1" stop-color="rgb(63.050842%, 12.390137%, 65.951538%)" offset="0.238281"/><stop stop-opacity="1" stop-color="rgb(63.60321%, 12.591553%, 65.815735%)" offset="0.242188"/><stop stop-opacity="1" stop-color="rgb(64.154053%, 12.791443%, 65.679932%)" offset="0.246094"/><stop stop-opacity="1" stop-color="rgb(64.706421%, 12.992859%, 65.545654%)" offset="0.25"/><stop stop-opacity="1" stop-color="rgb(65.257263%, 13.194275%, 65.409851%)" offset="0.253906"/><stop stop-opacity="1" stop-color="rgb(65.809631%, 13.395691%, 65.274048%)" offset="0.257812"/><stop stop-opacity="1" stop-color="rgb(66.360474%, 13.597107%, 65.138245%)" offset="0.261719"/><stop stop-opacity="1" stop-color="rgb(66.912842%, 13.798523%, 65.002441%)" offset="0.265625"/><stop stop-opacity="1" stop-color="rgb(67.463684%, 13.999939%, 64.866638%)" offset="0.269531"/><stop stop-opacity="1" stop-color="rgb(68.014526%, 14.201355%, 64.730835%)" offset="0.273438"/><stop stop-opacity="1" stop-color="rgb(68.565369%, 14.402771%, 64.595032%)" offset="0.277344"/><stop stop-opacity="1" stop-color="rgb(69.117737%, 14.604187%, 64.459229%)" offset="0.28125"/><stop stop-opacity="1" stop-color="rgb(69.668579%, 14.805603%, 64.323425%)" offset="0.285156"/><stop stop-opacity="1" stop-color="rgb(70.220947%, 15.007019%, 64.187622%)" offset="0.289062"/><stop stop-opacity="1" stop-color="rgb(70.77179%, 15.208435%, 64.051819%)" offset="0.292969"/><stop stop-opacity="1" stop-color="rgb(71.324158%, 15.409851%, 63.916016%)" offset="0.296875"/><stop stop-opacity="1" stop-color="rgb(71.875%, 15.611267%, 63.780212%)" offset="0.300781"/><stop stop-opacity="1" stop-color="rgb(72.427368%, 15.812683%, 63.644409%)" offset="0.304688"/><stop stop-opacity="1" stop-color="rgb(72.97821%, 16.014099%, 63.508606%)" offset="0.308594"/><stop stop-opacity="1" stop-color="rgb(73.529053%, 16.215515%, 63.372803%)" offset="0.3125"/><stop stop-opacity="1" stop-color="rgb(74.079895%, 16.416931%, 63.237%)" offset="0.316406"/><stop stop-opacity="1" stop-color="rgb(74.632263%, 16.618347%, 63.102722%)" offset="0.320312"/><stop stop-opacity="1" stop-color="rgb(75.183105%, 16.818237%, 62.966919%)" offset="0.324219"/><stop stop-opacity="1" stop-color="rgb(75.735474%, 17.019653%, 62.831116%)" offset="0.328125"/><stop stop-opacity="1" stop-color="rgb(76.286316%, 17.221069%, 62.695312%)" offset="0.332031"/><stop stop-opacity="1" stop-color="rgb(76.838684%, 17.422485%, 62.559509%)" offset="0.335938"/><stop stop-opacity="1" stop-color="rgb(77.389526%, 17.623901%, 62.423706%)" offset="0.339844"/><stop stop-opacity="1" stop-color="rgb(77.941895%, 17.825317%, 62.287903%)" offset="0.34375"/><stop stop-opacity="1" stop-color="rgb(78.492737%, 18.026733%, 62.1521%)" offset="0.347656"/><stop stop-opacity="1" stop-color="rgb(79.043579%, 18.228149%, 62.016296%)" offset="0.351562"/><stop stop-opacity="1" stop-color="rgb(79.594421%, 18.429565%, 61.880493%)" offset="0.355469"/><stop stop-opacity="1" stop-color="rgb(80.14679%, 18.630981%, 61.74469%)" offset="0.359375"/><stop stop-opacity="1" stop-color="rgb(80.697632%, 18.832397%, 61.608887%)" offset="0.363281"/><stop stop-opacity="1" stop-color="rgb(81.25%, 19.033813%, 61.473083%)" offset="0.367188"/><stop stop-opacity="1" stop-color="rgb(81.800842%, 19.235229%, 61.33728%)" offset="0.371094"/><stop stop-opacity="1" stop-color="rgb(82.35321%, 19.436646%, 61.201477%)" offset="0.375"/><stop stop-opacity="1" stop-color="rgb(82.904053%, 19.638062%, 61.065674%)" offset="0.378906"/><stop stop-opacity="1" stop-color="rgb(83.456421%, 19.839478%, 60.931396%)" offset="0.382812"/><stop stop-opacity="1" stop-color="rgb(84.007263%, 20.040894%, 60.795593%)" offset="0.386719"/><stop stop-opacity="1" stop-color="rgb(84.558105%, 20.24231%, 60.65979%)" offset="0.390625"/><stop stop-opacity="1" stop-color="rgb(85.108948%, 20.443726%, 60.523987%)" offset="0.394531"/><stop stop-opacity="1" stop-color="rgb(85.661316%, 20.645142%, 60.388184%)" offset="0.398438"/><stop stop-opacity="1" stop-color="rgb(86.212158%, 20.845032%, 60.25238%)" offset="0.402344"/><stop stop-opacity="1" stop-color="rgb(86.764526%, 21.046448%, 60.116577%)" offset="0.40625"/><stop stop-opacity="1" stop-color="rgb(87.315369%, 21.247864%, 59.980774%)" offset="0.410156"/><stop stop-opacity="1" stop-color="rgb(87.867737%, 21.44928%, 59.844971%)" offset="0.414062"/><stop stop-opacity="1" stop-color="rgb(88.418579%, 21.650696%, 59.709167%)" offset="0.417969"/><stop stop-opacity="1" stop-color="rgb(88.970947%, 21.852112%, 59.573364%)" offset="0.421875"/><stop stop-opacity="1" stop-color="rgb(89.52179%, 22.053528%, 59.437561%)" offset="0.425781"/><stop stop-opacity="1" stop-color="rgb(90.072632%, 22.254944%, 59.301758%)" offset="0.429688"/><stop stop-opacity="1" stop-color="rgb(90.623474%, 22.45636%, 59.165955%)" offset="0.433594"/><stop stop-opacity="1" stop-color="rgb(91.175842%, 22.657776%, 59.030151%)" offset="0.4375"/><stop stop-opacity="1" stop-color="rgb(91.726685%, 22.859192%, 58.894348%)" offset="0.441406"/><stop stop-opacity="1" stop-color="rgb(92.279053%, 23.060608%, 58.758545%)" offset="0.445312"/><stop stop-opacity="1" stop-color="rgb(92.829895%, 23.262024%, 58.622742%)" offset="0.449219"/><stop stop-opacity="1" stop-color="rgb(93.382263%, 23.46344%, 58.488464%)" offset="0.453125"/><stop stop-opacity="1" stop-color="rgb(93.933105%, 23.664856%, 58.352661%)" offset="0.457031"/><stop stop-opacity="1" stop-color="rgb(94.485474%, 23.866272%, 58.216858%)" offset="0.460938"/><stop stop-opacity="1" stop-color="rgb(95.036316%, 24.067688%, 58.081055%)" offset="0.464844"/><stop stop-opacity="1" stop-color="rgb(95.587158%, 24.269104%, 57.945251%)" offset="0.46875"/><stop stop-opacity="1" stop-color="rgb(96.138%, 24.47052%, 57.809448%)" offset="0.472656"/><stop stop-opacity="1" stop-color="rgb(96.690369%, 24.671936%, 57.673645%)" offset="0.476562"/><stop stop-opacity="1" stop-color="rgb(97.241211%, 24.871826%, 57.537842%)" offset="0.480469"/><stop stop-opacity="1" stop-color="rgb(97.793579%, 25.073242%, 57.402039%)" offset="0.484375"/><stop stop-opacity="1" stop-color="rgb(98.344421%, 25.274658%, 57.266235%)" offset="0.488281"/><stop stop-opacity="1" stop-color="rgb(98.89679%, 25.476074%, 57.130432%)" offset="0.492188"/><stop stop-opacity="1" stop-color="rgb(99.447632%, 25.67749%, 56.994629%)" offset="0.496094"/><stop stop-opacity="1" stop-color="rgb(100%, 25.878906%, 56.858826%)" offset="0.5"/><stop stop-opacity="1" stop-color="rgb(99.964905%, 26.705933%, 56.486511%)" offset="0.503906"/><stop stop-opacity="1" stop-color="rgb(99.92981%, 27.532959%, 56.115723%)" offset="0.507812"/><stop stop-opacity="1" stop-color="rgb(99.894714%, 28.359985%, 55.743408%)" offset="0.511719"/><stop stop-opacity="1" stop-color="rgb(99.859619%, 29.188538%, 55.371094%)" offset="0.515625"/><stop stop-opacity="1" stop-color="rgb(99.824524%, 30.015564%, 54.998779%)" offset="0.519531"/><stop stop-opacity="1" stop-color="rgb(99.789429%, 30.84259%, 54.627991%)" offset="0.523438"/><stop stop-opacity="1" stop-color="rgb(99.754333%, 31.669617%, 54.255676%)" offset="0.527344"/><stop stop-opacity="1" stop-color="rgb(99.719238%, 32.496643%, 53.883362%)" offset="0.53125"/><stop stop-opacity="1" stop-color="rgb(99.684143%, 33.323669%, 53.511047%)" offset="0.535156"/><stop stop-opacity="1" stop-color="rgb(99.649048%, 34.152222%, 53.138733%)" offset="0.539062"/><stop stop-opacity="1" stop-color="rgb(99.613953%, 34.979248%, 52.766418%)" offset="0.542969"/><stop stop-opacity="1" stop-color="rgb(99.578857%, 35.806274%, 52.39563%)" offset="0.546875"/><stop stop-opacity="1" stop-color="rgb(99.543762%, 36.633301%, 52.023315%)" offset="0.550781"/><stop stop-opacity="1" stop-color="rgb(99.508667%, 37.460327%, 51.651001%)" offset="0.554688"/><stop stop-opacity="1" stop-color="rgb(99.473572%, 38.287354%, 51.278687%)" offset="0.558594"/><stop stop-opacity="1" stop-color="rgb(99.438477%, 39.11438%, 50.907898%)" offset="0.5625"/><stop stop-opacity="1" stop-color="rgb(99.403381%, 39.941406%, 50.535583%)" offset="0.566406"/><stop stop-opacity="1" stop-color="rgb(99.368286%, 40.769958%, 50.163269%)" offset="0.570312"/><stop stop-opacity="1" stop-color="rgb(99.333191%, 41.596985%, 49.790955%)" offset="0.574219"/><stop stop-opacity="1" stop-color="rgb(99.298096%, 42.424011%, 49.420166%)" offset="0.578125"/><stop stop-opacity="1" stop-color="rgb(99.263%, 43.251038%, 49.047852%)" offset="0.582031"/><stop stop-opacity="1" stop-color="rgb(99.227905%, 44.078064%, 48.675537%)" offset="0.585938"/><stop stop-opacity="1" stop-color="rgb(99.19281%, 44.90509%, 48.303223%)" offset="0.589844"/><stop stop-opacity="1" stop-color="rgb(99.157715%, 45.732117%, 47.930908%)" offset="0.59375"/><stop stop-opacity="1" stop-color="rgb(99.12262%, 46.559143%, 47.558594%)" offset="0.597656"/><stop stop-opacity="1" stop-color="rgb(99.087524%, 47.387695%, 47.187805%)" offset="0.601562"/><stop stop-opacity="1" stop-color="rgb(99.052429%, 48.214722%, 46.815491%)" offset="0.605469"/><stop stop-opacity="1" stop-color="rgb(99.017334%, 49.041748%, 46.443176%)" offset="0.609375"/><stop stop-opacity="1" stop-color="rgb(98.982239%, 49.868774%, 46.070862%)" offset="0.613281"/><stop stop-opacity="1" stop-color="rgb(98.947144%, 50.695801%, 45.700073%)" offset="0.617188"/><stop stop-opacity="1" stop-color="rgb(98.912048%, 51.522827%, 45.327759%)" offset="0.621094"/><stop stop-opacity="1" stop-color="rgb(98.878479%, 52.351379%, 44.955444%)" offset="0.625"/><stop stop-opacity="1" stop-color="rgb(98.843384%, 53.178406%, 44.58313%)" offset="0.628906"/><stop stop-opacity="1" stop-color="rgb(98.808289%, 54.005432%, 44.212341%)" offset="0.632812"/><stop stop-opacity="1" stop-color="rgb(98.773193%, 54.832458%, 43.840027%)" offset="0.636719"/><stop stop-opacity="1" stop-color="rgb(98.738098%, 55.659485%, 43.467712%)" offset="0.640625"/><stop stop-opacity="1" stop-color="rgb(98.703003%, 56.486511%, 43.095398%)" offset="0.644531"/><stop stop-opacity="1" stop-color="rgb(98.667908%, 57.313538%, 42.723083%)" offset="0.648438"/><stop stop-opacity="1" stop-color="rgb(98.632812%, 58.140564%, 42.350769%)" offset="0.652344"/><stop stop-opacity="1" stop-color="rgb(98.597717%, 58.969116%, 41.97998%)" offset="0.65625"/><stop stop-opacity="1" stop-color="rgb(98.562622%, 59.796143%, 41.607666%)" offset="0.660156"/><stop stop-opacity="1" stop-color="rgb(98.527527%, 60.623169%, 41.235352%)" offset="0.664062"/><stop stop-opacity="1" stop-color="rgb(98.492432%, 61.450195%, 40.863037%)" offset="0.667969"/><stop stop-opacity="1" stop-color="rgb(98.457336%, 62.277222%, 40.492249%)" offset="0.671875"/><stop stop-opacity="1" stop-color="rgb(98.422241%, 63.104248%, 40.119934%)" offset="0.675781"/><stop stop-opacity="1" stop-color="rgb(98.387146%, 63.931274%, 39.74762%)" offset="0.679688"/><stop stop-opacity="1" stop-color="rgb(98.352051%, 64.758301%, 39.375305%)" offset="0.683594"/><stop stop-opacity="1" stop-color="rgb(98.316956%, 65.586853%, 39.004517%)" offset="0.6875"/><stop stop-opacity="1" stop-color="rgb(98.28186%, 66.413879%, 38.632202%)" offset="0.691406"/><stop stop-opacity="1" stop-color="rgb(98.246765%, 67.240906%, 38.259888%)" offset="0.695312"/><stop stop-opacity="1" stop-color="rgb(98.21167%, 68.067932%, 37.887573%)" offset="0.699219"/><stop stop-opacity="1" stop-color="rgb(98.176575%, 68.894958%, 37.515259%)" offset="0.703125"/><stop stop-opacity="1" stop-color="rgb(98.141479%, 69.721985%, 37.142944%)" offset="0.707031"/><stop stop-opacity="1" stop-color="rgb(98.106384%, 70.549011%, 36.772156%)" offset="0.710938"/><stop stop-opacity="1" stop-color="rgb(98.071289%, 71.376038%, 36.399841%)" offset="0.714844"/><stop stop-opacity="1" stop-color="rgb(98.036194%, 72.20459%, 36.027527%)" offset="0.71875"/><stop stop-opacity="1" stop-color="rgb(98.001099%, 73.031616%, 35.655212%)" offset="0.722656"/><stop stop-opacity="1" stop-color="rgb(97.966003%, 73.858643%, 35.284424%)" offset="0.726562"/><stop stop-opacity="1" stop-color="rgb(97.930908%, 74.685669%, 34.912109%)" offset="0.730469"/><stop stop-opacity="1" stop-color="rgb(97.895813%, 75.512695%, 34.539795%)" offset="0.734375"/><stop stop-opacity="1" stop-color="rgb(97.860718%, 76.339722%, 34.16748%)" offset="0.738281"/><stop stop-opacity="1" stop-color="rgb(97.827148%, 77.168274%, 33.796692%)" offset="0.742188"/><stop stop-opacity="1" stop-color="rgb(97.792053%, 77.9953%, 33.424377%)" offset="0.746094"/><stop stop-opacity="1" stop-color="rgb(97.756958%, 78.822327%, 33.052063%)" offset="0.75"/><stop stop-opacity="1" stop-color="rgb(97.721863%, 79.649353%, 32.679749%)" offset="0.753906"/><stop stop-opacity="1" stop-color="rgb(97.686768%, 80.476379%, 32.307434%)" offset="0.757812"/><stop stop-opacity="1" stop-color="rgb(97.651672%, 81.303406%, 31.93512%)" offset="0.761719"/><stop stop-opacity="1" stop-color="rgb(97.616577%, 82.130432%, 31.564331%)" offset="0.765625"/><stop stop-opacity="1" stop-color="rgb(97.581482%, 82.957458%, 31.192017%)" offset="0.769531"/><stop stop-opacity="1" stop-color="rgb(97.546387%, 83.786011%, 30.819702%)" offset="0.773438"/><stop stop-opacity="1" stop-color="rgb(97.511292%, 84.613037%, 30.447388%)" offset="0.777344"/><stop stop-opacity="1" stop-color="rgb(97.476196%, 85.440063%, 30.076599%)" offset="0.78125"/><stop stop-opacity="1" stop-color="rgb(97.441101%, 86.26709%, 29.704285%)" offset="0.785156"/><stop stop-opacity="1" stop-color="rgb(97.406006%, 87.094116%, 29.33197%)" offset="0.789062"/><stop stop-opacity="1" stop-color="rgb(97.370911%, 87.921143%, 28.959656%)" offset="0.792969"/><stop stop-opacity="1" stop-color="rgb(97.335815%, 88.748169%, 28.588867%)" offset="0.796875"/><stop stop-opacity="1" stop-color="rgb(97.30072%, 89.575195%, 28.216553%)" offset="0.800781"/><stop stop-opacity="1" stop-color="rgb(97.265625%, 90.403748%, 27.844238%)" offset="0.804688"/><stop stop-opacity="1" stop-color="rgb(97.23053%, 91.230774%, 27.471924%)" offset="0.808594"/><stop stop-opacity="1" stop-color="rgb(97.195435%, 92.0578%, 27.099609%)" offset="0.8125"/><stop stop-opacity="1" stop-color="rgb(97.160339%, 92.884827%, 26.727295%)" offset="0.816406"/><stop stop-opacity="1" stop-color="rgb(97.125244%, 93.711853%, 26.356506%)" offset="0.820312"/><stop stop-opacity="1" stop-color="rgb(97.090149%, 94.538879%, 25.984192%)" offset="0.824219"/><stop stop-opacity="1" stop-color="rgb(97.055054%, 95.367432%, 25.611877%)" offset="0.828125"/><stop stop-opacity="1" stop-color="rgb(97.019958%, 96.194458%, 25.239563%)" offset="0.832031"/><stop stop-opacity="1" stop-color="rgb(96.984863%, 97.021484%, 24.868774%)" offset="0.835938"/><stop stop-opacity="1" stop-color="rgb(96.949768%, 97.848511%, 24.49646%)" offset="0.839844"/><stop stop-opacity="1" stop-color="rgb(96.914673%, 98.675537%, 24.124146%)" offset="0.84375"/><stop stop-opacity="1" stop-color="rgb(96.887207%, 99.337769%, 23.826599%)" offset="0.847656"/><stop stop-opacity="1" stop-color="rgb(96.859741%, 100%, 23.529053%)" offset="0.851562"/><stop stop-opacity="1" stop-color="rgb(96.859741%, 100%, 23.529053%)" offset="0.859375"/><stop stop-opacity="1" stop-color="rgb(96.859741%, 100%, 23.529053%)" offset="0.875"/><stop stop-opacity="1" stop-color="rgb(96.859741%, 100%, 23.529053%)" offset="1"/></linearGradient><clipPath id="6d01b1b3b8"><rect x="0" width="375" y="0" height="375"/></clipPath><mask id="bc531fd13c"><g filter="url(#8bb45fb5b8)"><rect x="-37.5" width="450" fill="#000000" y="-37.499999" height="449.999989" fill-opacity="0.18"/></g></mask><clipPath id="10f2e6b4b8"><path d="M 1.007812 1.007812 L 337.992188 1.007812 L 337.992188 337.992188 L 1.007812 337.992188 Z M 1.007812 1.007812 " clip-rule="nonzero"/></clipPath><clipPath id="5f49ed3921"><path d="M 20.933594 142.296875 C 30.738281 154.085938 30.757812 185.363281 21.007812 197.199219 C 8.753906 212.078125 1.410156 231.113281 1.410156 251.808594 C 1.410156 299.597656 40.125 337.992188 87.394531 337.992188 C 108.195312 337.992188 127.238281 330.675781 142.105469 318.457031 C 153.96875 308.707031 185.4375 308.703125 197.300781 318.453125 C 212.167969 330.675781 231.210938 337.992188 252.015625 337.992188 C 299.285156 337.992188 337.992188 299.597656 337.992188 251.808594 C 337.992188 230.957031 330.421875 211.792969 317.960938 196.867188 C 308.167969 185.140625 308.167969 154.261719 317.945312 142.519531 C 330.417969 127.546875 337.992188 108.273438 337.992188 87.191406 C 337.992188 39.8125 299.285156 1.007812 252.015625 1.007812 C 231.390625 1.007812 212.570312 8.164062 197.78125 20.140625 C 185.738281 29.886719 153.070312 29.777344 141.027344 20.03125 C 126.3125 8.121094 107.546875 1.007812 86.984375 1.007812 C 39.710938 1.007812 1.007812 39.8125 1.007812 87.191406 C 1.007812 108.167969 8.507812 127.355469 20.933594 142.296875 Z M 20.933594 142.296875 " clip-rule="nonzero"/></clipPath><clipPath id="63f7fc1bb4"><path d="M 0.0078125 0.0078125 L 336.992188 0.0078125 L 336.992188 336.992188 L 0.0078125 336.992188 Z M 0.0078125 0.0078125 " clip-rule="nonzero"/></clipPath><clipPath id="a22eb546d0"><path d="M 19.933594 141.296875 C 29.738281 153.085938 29.757812 184.363281 20.007812 196.199219 C 7.753906 211.078125 0.410156 230.113281 0.410156 250.808594 C 0.410156 298.597656 39.125 336.992188 86.394531 336.992188 C 107.195312 336.992188 126.238281 329.675781 141.105469 317.457031 C 152.96875 307.707031 184.4375 307.703125 196.300781 317.453125 C 211.167969 329.675781 230.210938 336.992188 251.015625 336.992188 C 298.285156 336.992188 336.992188 298.597656 336.992188 250.808594 C 336.992188 229.957031 329.421875 210.792969 316.960938 195.867188 C 307.167969 184.140625 307.167969 153.261719 316.945312 141.519531 C 329.417969 126.546875 336.992188 107.273438 336.992188 86.191406 C 336.992188 38.8125 298.285156 0.0078125 251.015625 0.0078125 C 230.390625 0.0078125 211.570312 7.164062 196.78125 19.140625 C 184.738281 28.886719 152.070312 28.777344 140.027344 19.03125 C 125.3125 7.121094 106.546875 0.0078125 85.984375 0.0078125 C 38.710938 0.0078125 0.0078125 38.8125 0.0078125 86.191406 C 0.0078125 107.167969 7.507812 126.355469 19.933594 141.296875 Z M 19.933594 141.296875 " clip-rule="nonzero"/></clipPath><clipPath id="2bf153a542"><rect x="0" width="337" y="0" height="337"/></clipPath><clipPath id="0d5c04b3ca"><rect x="0" width="339" y="0" height="339"/></clipPath></defs><g clip-path="url(#f1a8218916)"><g transform="matrix(1, 0, 0, 1, 0, 0)"><g clip-path="url(#6d01b1b3b8)"><g clip-path="url(#2863fb3bb9)"><g clip-path="url(#4a67962bc7)"><rect x="-82.5" fill="url(#1d0f102414)" width="540" height="539.999987" y="-82.499998"/></g></g></g></g></g><g mask="url(#bc531fd13c)"><g transform="matrix(1, 0, 0, 1, 18, 18)"><g clip-path="url(#0d5c04b3ca)"><g clip-path="url(#10f2e6b4b8)"><g clip-path="url(#5f49ed3921)"><g transform="matrix(1, 0, 0, 1, 1, 1)"><g clip-path="url(#2bf153a542)"><g clip-path="url(#63f7fc1bb4)"><g clip-path="url(#a22eb546d0)"><path fill="#000000" d="M 0.0078125 0.0078125 L 336.992188 0.0078125 L 336.992188 336.992188 L 0.0078125 336.992188 Z M 0.0078125 0.0078125 " fill-opacity="1" fill-rule="nonzero"/></g></g></g></g></g></g></g></g></g><g fill="#ffffff" fill-opacity="0.302"><g transform="translate(84.717076, 315.464067)"><g><path d="M 65.453125 -109.546875 C 65.921875 -110.710938 66.382812 -111.878906 66.84375 -113.046875 C 67.3125 -114.210938 67.78125 -115.378906 68.25 -116.546875 C 69.644531 -120.515625 71.101562 -124.484375 72.625 -128.453125 C 74.144531 -132.421875 75.835938 -136.269531 77.703125 -140 C 80.503906 -145.601562 83.242188 -151.257812 85.921875 -156.96875 C 88.609375 -162.6875 91.351562 -168.347656 94.15625 -173.953125 C 95.082031 -175.816406 96.007812 -177.503906 96.9375 -179.015625 C 97.875 -180.535156 98.8125 -182 99.75 -183.40625 C 100.914062 -185.03125 102.609375 -185.84375 104.828125 -185.84375 C 107.046875 -185.84375 108.617188 -185.144531 109.546875 -183.75 C 110.953125 -182.113281 112.117188 -180.421875 113.046875 -178.671875 C 113.984375 -176.921875 114.914062 -175.113281 115.84375 -173.25 C 117.476562 -169.976562 119.050781 -166.707031 120.5625 -163.4375 C 122.082031 -160.175781 123.660156 -156.914062 125.296875 -153.65625 C 126.460938 -151.320312 127.6875 -148.925781 128.96875 -146.46875 C 130.257812 -144.019531 131.367188 -141.515625 132.296875 -138.953125 C 133.703125 -135.921875 135.046875 -132.769531 136.328125 -129.5 C 137.609375 -126.226562 138.945312 -122.960938 140.34375 -119.703125 C 140.8125 -118.296875 141.335938 -116.953125 141.921875 -115.671875 C 142.503906 -114.390625 143.03125 -113.050781 143.5 -111.65625 C 143.5 -110.945312 144.082031 -110.242188 145.25 -109.546875 L 145.25 -152.59375 C 145.476562 -167.0625 145.648438 -181.410156 145.765625 -195.640625 C 145.890625 -209.878906 145.953125 -224.113281 145.953125 -238.34375 C 146.179688 -239.507812 146.296875 -240.734375 146.296875 -242.015625 C 146.296875 -243.304688 146.296875 -244.535156 146.296875 -245.703125 C 146.066406 -247.796875 146.648438 -249.3125 148.046875 -250.25 C 149.453125 -251.1875 150.96875 -251.769531 152.59375 -252 C 153.53125 -252.226562 155.050781 -252.34375 157.15625 -252.34375 C 159.019531 -252.113281 160.882812 -251.941406 162.75 -251.828125 C 164.613281 -251.710938 166.476562 -251.535156 168.34375 -251.296875 L 176.40625 -251.296875 C 178.96875 -251.296875 181.648438 -251.296875 184.453125 -251.296875 C 187.253906 -251.296875 189.9375 -251.414062 192.5 -251.65625 C 194.832031 -251.65625 196.347656 -250.601562 197.046875 -248.5 C 197.515625 -247.5625 197.863281 -246.625 198.09375 -245.6875 C 198.332031 -244.757812 198.453125 -243.710938 198.453125 -242.546875 C 198.210938 -234.378906 198.09375 -226.09375 198.09375 -217.6875 C 198.09375 -209.289062 197.863281 -201.007812 197.40625 -192.84375 C 196.695312 -173.25 196.34375 -153.535156 196.34375 -133.703125 C 196.582031 -127.398438 196.757812 -121.097656 196.875 -114.796875 C 196.988281 -108.492188 197.046875 -102.195312 197.046875 -95.90625 C 197.046875 -90.53125 197.046875 -85.21875 197.046875 -79.96875 C 197.046875 -74.71875 196.8125 -69.410156 196.34375 -64.046875 C 195.644531 -54.710938 195.410156 -45.320312 195.640625 -35.875 C 195.878906 -26.425781 195.882812 -16.914062 195.65625 -7.34375 C 195.65625 -6.882812 195.710938 -6.476562 195.828125 -6.125 C 195.941406 -5.769531 195.882812 -5.363281 195.65625 -4.90625 C 195.65625 -1.863281 194.253906 -0.226562 191.453125 0 C 179.316406 1.632812 166.832031 2.6875 154 3.15625 C 152.601562 3.15625 151.550781 3.035156 150.84375 2.796875 C 147.8125 2.796875 145.832031 1.515625 144.90625 -1.046875 L 135.453125 -23.09375 C 133.585938 -28 131.71875 -32.957031 129.84375 -37.96875 C 127.976562 -42.988281 125.765625 -47.832031 123.203125 -52.5 C 120.398438 -57.863281 117.65625 -63.171875 114.96875 -68.421875 C 112.289062 -73.671875 109.664062 -78.863281 107.09375 -84 C 106.863281 -84.695312 106.570312 -85.335938 106.21875 -85.921875 C 105.875 -86.503906 105.46875 -87.265625 105 -88.203125 C 104.0625 -86.796875 103.476562 -85.863281 103.25 -85.40625 C 100.914062 -80.738281 98.582031 -76.007812 96.25 -71.21875 C 93.914062 -66.4375 91.582031 -61.710938 89.25 -57.046875 C 87.144531 -53.316406 85.160156 -49.46875 83.296875 -45.5 C 81.429688 -41.53125 79.679688 -37.5625 78.046875 -33.59375 C 76.648438 -29.863281 75.191406 -26.070312 73.671875 -22.21875 C 72.160156 -18.375 70.585938 -14.46875 68.953125 -10.5 C 68.484375 -8.863281 67.835938 -7.285156 67.015625 -5.765625 C 66.203125 -4.253906 65.445312 -2.679688 64.75 -1.046875 C 63.582031 1.515625 61.484375 2.796875 58.453125 2.796875 C 55.179688 2.796875 51.851562 2.738281 48.46875 2.625 C 45.09375 2.507812 41.769531 2.332031 38.5 2.09375 C 37.5625 2.09375 36.6875 2.035156 35.875 1.921875 C 35.0625 1.804688 34.1875 1.75 33.25 1.75 C 31.382812 1.976562 29.578125 1.742188 27.828125 1.046875 C 26.078125 0.347656 24.269531 -0.347656 22.40625 -1.046875 C 21.46875 -1.515625 20.707031 -2.210938 20.125 -3.140625 C 19.539062 -4.078125 19.015625 -5.015625 18.546875 -5.953125 C 17.617188 -8.753906 16.921875 -11.785156 16.453125 -15.046875 C 14.816406 -31.847656 14.113281 -48.53125 14.34375 -65.09375 C 15.050781 -87.257812 15.40625 -109.195312 15.40625 -130.90625 C 15.632812 -139.070312 15.691406 -147.296875 15.578125 -155.578125 C 15.460938 -163.859375 15.40625 -171.96875 15.40625 -179.90625 L 14.34375 -234.5 C 14.113281 -236.132812 14 -237.765625 14 -239.390625 C 14 -241.023438 14 -242.660156 14 -244.296875 C 14 -247.097656 15.28125 -249.082031 17.84375 -250.25 C 19.007812 -250.71875 20.175781 -251.066406 21.34375 -251.296875 C 22.507812 -251.535156 23.675781 -251.535156 24.84375 -251.296875 L 33.25 -251.296875 C 34.644531 -251.296875 36.039062 -251.296875 37.4375 -251.296875 C 38.84375 -251.296875 40.25 -251.414062 41.65625 -251.65625 C 43.988281 -251.65625 46.203125 -251.769531 48.296875 -252 C 50.398438 -252.226562 52.617188 -252.34375 54.953125 -252.34375 C 57.515625 -252.34375 59.550781 -251.46875 61.0625 -249.71875 C 62.582031 -247.96875 63.34375 -245.8125 63.34375 -243.25 C 63.582031 -229.71875 63.757812 -216.125 63.875 -202.46875 C 63.988281 -188.820312 64.046875 -175.113281 64.046875 -161.34375 C 64.285156 -153.175781 64.40625 -145.007812 64.40625 -136.84375 C 64.40625 -128.675781 64.40625 -120.507812 64.40625 -112.34375 C 64.40625 -111.175781 64.519531 -110.363281 64.75 -109.90625 C 64.75 -109.664062 64.984375 -109.546875 65.453125 -109.546875 Z M 65.453125 -109.546875 "/></g></g></g><g fill="#ffffff" fill-opacity="0.502"><g transform="translate(82.993307, 314.117305)"><g><path d="M 65.453125 -109.546875 C 65.921875 -110.710938 66.382812 -111.878906 66.84375 -113.046875 C 67.3125 -114.210938 67.78125 -115.378906 68.25 -116.546875 C 69.644531 -120.515625 71.101562 -124.484375 72.625 -128.453125 C 74.144531 -132.421875 75.835938 -136.269531 77.703125 -140 C 80.503906 -145.601562 83.242188 -151.257812 85.921875 -156.96875 C 88.609375 -162.6875 91.351562 -168.347656 94.15625 -173.953125 C 95.082031 -175.816406 96.007812 -177.503906 96.9375 -179.015625 C 97.875 -180.535156 98.8125 -182 99.75 -183.40625 C 100.914062 -185.03125 102.609375 -185.84375 104.828125 -185.84375 C 107.046875 -185.84375 108.617188 -185.144531 109.546875 -183.75 C 110.953125 -182.113281 112.117188 -180.421875 113.046875 -178.671875 C 113.984375 -176.921875 114.914062 -175.113281 115.84375 -173.25 C 117.476562 -169.976562 119.050781 -166.707031 120.5625 -163.4375 C 122.082031 -160.175781 123.660156 -156.914062 125.296875 -153.65625 C 126.460938 -151.320312 127.6875 -148.925781 128.96875 -146.46875 C 130.257812 -144.019531 131.367188 -141.515625 132.296875 -138.953125 C 133.703125 -135.921875 135.046875 -132.769531 136.328125 -129.5 C 137.609375 -126.226562 138.945312 -122.960938 140.34375 -119.703125 C 140.8125 -118.296875 141.335938 -116.953125 141.921875 -115.671875 C 142.503906 -114.390625 143.03125 -113.050781 143.5 -111.65625 C 143.5 -110.945312 144.082031 -110.242188 145.25 -109.546875 L 145.25 -152.59375 C 145.476562 -167.0625 145.648438 -181.410156 145.765625 -195.640625 C 145.890625 -209.878906 145.953125 -224.113281 145.953125 -238.34375 C 146.179688 -239.507812 146.296875 -240.734375 146.296875 -242.015625 C 146.296875 -243.304688 146.296875 -244.535156 146.296875 -245.703125 C 146.066406 -247.796875 146.648438 -249.3125 148.046875 -250.25 C 149.453125 -251.1875 150.96875 -251.769531 152.59375 -252 C 153.53125 -252.226562 155.050781 -252.34375 157.15625 -252.34375 C 159.019531 -252.113281 160.882812 -251.941406 162.75 -251.828125 C 164.613281 -251.710938 166.476562 -251.535156 168.34375 -251.296875 L 176.40625 -251.296875 C 178.96875 -251.296875 181.648438 -251.296875 184.453125 -251.296875 C 187.253906 -251.296875 189.9375 -251.414062 192.5 -251.65625 C 194.832031 -251.65625 196.347656 -250.601562 197.046875 -248.5 C 197.515625 -247.5625 197.863281 -246.625 198.09375 -245.6875 C 198.332031 -244.757812 198.453125 -243.710938 198.453125 -242.546875 C 198.210938 -234.378906 198.09375 -226.09375 198.09375 -217.6875 C 198.09375 -209.289062 197.863281 -201.007812 197.40625 -192.84375 C 196.695312 -173.25 196.34375 -153.535156 196.34375 -133.703125 C 196.582031 -127.398438 196.757812 -121.097656 196.875 -114.796875 C 196.988281 -108.492188 197.046875 -102.195312 197.046875 -95.90625 C 197.046875 -90.53125 197.046875 -85.21875 197.046875 -79.96875 C 197.046875 -74.71875 196.8125 -69.410156 196.34375 -64.046875 C 195.644531 -54.710938 195.410156 -45.320312 195.640625 -35.875 C 195.878906 -26.425781 195.882812 -16.914062 195.65625 -7.34375 C 195.65625 -6.882812 195.710938 -6.476562 195.828125 -6.125 C 195.941406 -5.769531 195.882812 -5.363281 195.65625 -4.90625 C 195.65625 -1.863281 194.253906 -0.226562 191.453125 0 C 179.316406 1.632812 166.832031 2.6875 154 3.15625 C 152.601562 3.15625 151.550781 3.035156 150.84375 2.796875 C 147.8125 2.796875 145.832031 1.515625 144.90625 -1.046875 L 135.453125 -23.09375 C 133.585938 -28 131.71875 -32.957031 129.84375 -37.96875 C 127.976562 -42.988281 125.765625 -47.832031 123.203125 -52.5 C 120.398438 -57.863281 117.65625 -63.171875 114.96875 -68.421875 C 112.289062 -73.671875 109.664062 -78.863281 107.09375 -84 C 106.863281 -84.695312 106.570312 -85.335938 106.21875 -85.921875 C 105.875 -86.503906 105.46875 -87.265625 105 -88.203125 C 104.0625 -86.796875 103.476562 -85.863281 103.25 -85.40625 C 100.914062 -80.738281 98.582031 -76.007812 96.25 -71.21875 C 93.914062 -66.4375 91.582031 -61.710938 89.25 -57.046875 C 87.144531 -53.316406 85.160156 -49.46875 83.296875 -45.5 C 81.429688 -41.53125 79.679688 -37.5625 78.046875 -33.59375 C 76.648438 -29.863281 75.191406 -26.070312 73.671875 -22.21875 C 72.160156 -18.375 70.585938 -14.46875 68.953125 -10.5 C 68.484375 -8.863281 67.835938 -7.285156 67.015625 -5.765625 C 66.203125 -4.253906 65.445312 -2.679688 64.75 -1.046875 C 63.582031 1.515625 61.484375 2.796875 58.453125 2.796875 C 55.179688 2.796875 51.851562 2.738281 48.46875 2.625 C 45.09375 2.507812 41.769531 2.332031 38.5 2.09375 C 37.5625 2.09375 36.6875 2.035156 35.875 1.921875 C 35.0625 1.804688 34.1875 1.75 33.25 1.75 C 31.382812 1.976562 29.578125 1.742188 27.828125 1.046875 C 26.078125 0.347656 24.269531 -0.347656 22.40625 -1.046875 C 21.46875 -1.515625 20.707031 -2.210938 20.125 -3.140625 C 19.539062 -4.078125 19.015625 -5.015625 18.546875 -5.953125 C 17.617188 -8.753906 16.921875 -11.785156 16.453125 -15.046875 C 14.816406 -31.847656 14.113281 -48.53125 14.34375 -65.09375 C 15.050781 -87.257812 15.40625 -109.195312 15.40625 -130.90625 C 15.632812 -139.070312 15.691406 -147.296875 15.578125 -155.578125 C 15.460938 -163.859375 15.40625 -171.96875 15.40625 -179.90625 L 14.34375 -234.5 C 14.113281 -236.132812 14 -237.765625 14 -239.390625 C 14 -241.023438 14 -242.660156 14 -244.296875 C 14 -247.097656 15.28125 -249.082031 17.84375 -250.25 C 19.007812 -250.71875 20.175781 -251.066406 21.34375 -251.296875 C 22.507812 -251.535156 23.675781 -251.535156 24.84375 -251.296875 L 33.25 -251.296875 C 34.644531 -251.296875 36.039062 -251.296875 37.4375 -251.296875 C 38.84375 -251.296875 40.25 -251.414062 41.65625 -251.65625 C 43.988281 -251.65625 46.203125 -251.769531 48.296875 -252 C 50.398438 -252.226562 52.617188 -252.34375 54.953125 -252.34375 C 57.515625 -252.34375 59.550781 -251.46875 61.0625 -249.71875 C 62.582031 -247.96875 63.34375 -245.8125 63.34375 -243.25 C 63.582031 -229.71875 63.757812 -216.125 63.875 -202.46875 C 63.988281 -188.820312 64.046875 -175.113281 64.046875 -161.34375 C 64.285156 -153.175781 64.40625 -145.007812 64.40625 -136.84375 C 64.40625 -128.675781 64.40625 -120.507812 64.40625 -112.34375 C 64.40625 -111.175781 64.519531 -110.363281 64.75 -109.90625 C 64.75 -109.664062 64.984375 -109.546875 65.453125 -109.546875 Z M 65.453125 -109.546875 "/></g></g></g><g fill="#ffffff" fill-opacity="1"><g transform="translate(81.269531, 312.770545)"><g><path d="M 65.453125 -109.546875 C 65.921875 -110.710938 66.382812 -111.878906 66.84375 -113.046875 C 67.3125 -114.210938 67.78125 -115.378906 68.25 -116.546875 C 69.644531 -120.515625 71.101562 -124.484375 72.625 -128.453125 C 74.144531 -132.421875 75.835938 -136.269531 77.703125 -140 C 80.503906 -145.601562 83.242188 -151.257812 85.921875 -156.96875 C 88.609375 -162.6875 91.351562 -168.347656 94.15625 -173.953125 C 95.082031 -175.816406 96.007812 -177.503906 96.9375 -179.015625 C 97.875 -180.535156 98.8125 -182 99.75 -183.40625 C 100.914062 -185.03125 102.609375 -185.84375 104.828125 -185.84375 C 107.046875 -185.84375 108.617188 -185.144531 109.546875 -183.75 C 110.953125 -182.113281 112.117188 -180.421875 113.046875 -178.671875 C 113.984375 -176.921875 114.914062 -175.113281 115.84375 -173.25 C 117.476562 -169.976562 119.050781 -166.707031 120.5625 -163.4375 C 122.082031 -160.175781 123.660156 -156.914062 125.296875 -153.65625 C 126.460938 -151.320312 127.6875 -148.925781 128.96875 -146.46875 C 130.257812 -144.019531 131.367188 -141.515625 132.296875 -138.953125 C 133.703125 -135.921875 135.046875 -132.769531 136.328125 -129.5 C 137.609375 -126.226562 138.945312 -122.960938 140.34375 -119.703125 C 140.8125 -118.296875 141.335938 -116.953125 141.921875 -115.671875 C 142.503906 -114.390625 143.03125 -113.050781 143.5 -111.65625 C 143.5 -110.945312 144.082031 -110.242188 145.25 -109.546875 L 145.25 -152.59375 C 145.476562 -167.0625 145.648438 -181.410156 145.765625 -195.640625 C 145.890625 -209.878906 145.953125 -224.113281 145.953125 -238.34375 C 146.179688 -239.507812 146.296875 -240.734375 146.296875 -242.015625 C 146.296875 -243.304688 146.296875 -244.535156 146.296875 -245.703125 C 146.066406 -247.796875 146.648438 -249.3125 148.046875 -250.25 C 149.453125 -251.1875 150.96875 -251.769531 152.59375 -252 C 153.53125 -252.226562 155.050781 -252.34375 157.15625 -252.34375 C 159.019531 -252.113281 160.882812 -251.941406 162.75 -251.828125 C 164.613281 -251.710938 166.476562 -251.535156 168.34375 -251.296875 L 176.40625 -251.296875 C 178.96875 -251.296875 181.648438 -251.296875 184.453125 -251.296875 C 187.253906 -251.296875 189.9375 -251.414062 192.5 -251.65625 C 194.832031 -251.65625 196.347656 -250.601562 197.046875 -248.5 C 197.515625 -247.5625 197.863281 -246.625 198.09375 -245.6875 C 198.332031 -244.757812 198.453125 -243.710938 198.453125 -242.546875 C 198.210938 -234.378906 198.09375 -226.09375 198.09375 -217.6875 C 198.09375 -209.289062 197.863281 -201.007812 197.40625 -192.84375 C 196.695312 -173.25 196.34375 -153.535156 196.34375 -133.703125 C 196.582031 -127.398438 196.757812 -121.097656 196.875 -114.796875 C 196.988281 -108.492188 197.046875 -102.195312 197.046875 -95.90625 C 197.046875 -90.53125 197.046875 -85.21875 197.046875 -79.96875 C 197.046875 -74.71875 196.8125 -69.410156 196.34375 -64.046875 C 195.644531 -54.710938 195.410156 -45.320312 195.640625 -35.875 C 195.878906 -26.425781 195.882812 -16.914062 195.65625 -7.34375 C 195.65625 -6.882812 195.710938 -6.476562 195.828125 -6.125 C 195.941406 -5.769531 195.882812 -5.363281 195.65625 -4.90625 C 195.65625 -1.863281 194.253906 -0.226562 191.453125 0 C 179.316406 1.632812 166.832031 2.6875 154 3.15625 C 152.601562 3.15625 151.550781 3.035156 150.84375 2.796875 C 147.8125 2.796875 145.832031 1.515625 144.90625 -1.046875 L 135.453125 -23.09375 C 133.585938 -28 131.71875 -32.957031 129.84375 -37.96875 C 127.976562 -42.988281 125.765625 -47.832031 123.203125 -52.5 C 120.398438 -57.863281 117.65625 -63.171875 114.96875 -68.421875 C 112.289062 -73.671875 109.664062 -78.863281 107.09375 -84 C 106.863281 -84.695312 106.570312 -85.335938 106.21875 -85.921875 C 105.875 -86.503906 105.46875 -87.265625 105 -88.203125 C 104.0625 -86.796875 103.476562 -85.863281 103.25 -85.40625 C 100.914062 -80.738281 98.582031 -76.007812 96.25 -71.21875 C 93.914062 -66.4375 91.582031 -61.710938 89.25 -57.046875 C 87.144531 -53.316406 85.160156 -49.46875 83.296875 -45.5 C 81.429688 -41.53125 79.679688 -37.5625 78.046875 -33.59375 C 76.648438 -29.863281 75.191406 -26.070312 73.671875 -22.21875 C 72.160156 -18.375 70.585938 -14.46875 68.953125 -10.5 C 68.484375 -8.863281 67.835938 -7.285156 67.015625 -5.765625 C 66.203125 -4.253906 65.445312 -2.679688 64.75 -1.046875 C 63.582031 1.515625 61.484375 2.796875 58.453125 2.796875 C 55.179688 2.796875 51.851562 2.738281 48.46875 2.625 C 45.09375 2.507812 41.769531 2.332031 38.5 2.09375 C 37.5625 2.09375 36.6875 2.035156 35.875 1.921875 C 35.0625 1.804688 34.1875 1.75 33.25 1.75 C 31.382812 1.976562 29.578125 1.742188 27.828125 1.046875 C 26.078125 0.347656 24.269531 -0.347656 22.40625 -1.046875 C 21.46875 -1.515625 20.707031 -2.210938 20.125 -3.140625 C 19.539062 -4.078125 19.015625 -5.015625 18.546875 -5.953125 C 17.617188 -8.753906 16.921875 -11.785156 16.453125 -15.046875 C 14.816406 -31.847656 14.113281 -48.53125 14.34375 -65.09375 C 15.050781 -87.257812 15.40625 -109.195312 15.40625 -130.90625 C 15.632812 -139.070312 15.691406 -147.296875 15.578125 -155.578125 C 15.460938 -163.859375 15.40625 -171.96875 15.40625 -179.90625 L 14.34375 -234.5 C 14.113281 -236.132812 14 -237.765625 14 -239.390625 C 14 -241.023438 14 -242.660156 14 -244.296875 C 14 -247.097656 15.28125 -249.082031 17.84375 -250.25 C 19.007812 -250.71875 20.175781 -251.066406 21.34375 -251.296875 C 22.507812 -251.535156 23.675781 -251.535156 24.84375 -251.296875 L 33.25 -251.296875 C 34.644531 -251.296875 36.039062 -251.296875 37.4375 -251.296875 C 38.84375 -251.296875 40.25 -251.414062 41.65625 -251.65625 C 43.988281 -251.65625 46.203125 -251.769531 48.296875 -252 C 50.398438 -252.226562 52.617188 -252.34375 54.953125 -252.34375 C 57.515625 -252.34375 59.550781 -251.46875 61.0625 -249.71875 C 62.582031 -247.96875 63.34375 -245.8125 63.34375 -243.25 C 63.582031 -229.71875 63.757812 -216.125 63.875 -202.46875 C 63.988281 -188.820312 64.046875 -175.113281 64.046875 -161.34375 C 64.285156 -153.175781 64.40625 -145.007812 64.40625 -136.84375 C 64.40625 -128.675781 64.40625 -120.507812 64.40625 -112.34375 C 64.40625 -111.175781 64.519531 -110.363281 64.75 -109.90625 C 64.75 -109.664062 64.984375 -109.546875 65.453125 -109.546875 Z M 65.453125 -109.546875 "/></g></g></g></svg>